<svg width="21" height="17" viewBox="0 0 21 17" fill="none" xmlns="http://www.w3.org/2000/svg">
<path d="M18.285 4.11974C18.298 4.30074 18.298 4.48174 18.298 4.66274C18.3092 6.22649 18.0094 7.77685 17.4161 9.22373C16.8229 10.6706 15.9479 11.9851 14.8422 13.0909C13.7364 14.1967 12.4219 15.0716 10.975 15.6649C9.52812 16.2582 7.97775 16.5579 6.414 16.5467C4.14 16.5528 1.91267 15.9017 0 14.6717C0.335031 14.7087 0.67194 14.7261 1.009 14.7237C2.88915 14.7285 4.71606 14.0996 6.195 12.9387C5.32305 12.9226 4.47794 12.6344 3.7778 12.1145C3.07765 11.5945 2.55748 10.8688 2.29 10.0387C2.551 10.0802 2.81474 10.1019 3.079 10.1037C3.45018 10.1028 3.81976 10.0551 4.179 9.96174C3.23306 9.77043 2.38256 9.25747 1.77203 8.51004C1.16151 7.76261 0.82864 6.82683 0.83 5.86174V5.81274C1.4088 6.13566 2.0557 6.31726 2.718 6.34274C1.83156 5.75148 1.20417 4.84421 0.963878 3.80612C0.723589 2.76803 0.888517 1.67737 1.425 0.756741C2.4741 2.04805 3.78289 3.10445 5.26649 3.85745C6.75009 4.61044 8.37539 5.04323 10.037 5.12774C9.97112 4.81298 9.93761 4.49231 9.937 4.17074C9.93905 3.33422 10.192 2.51756 10.6631 1.82632C11.1342 1.13508 11.8019 0.601051 12.5797 0.293275C13.3575 -0.0145014 14.2098 -0.0818713 15.0263 0.0998695C15.8429 0.28161 16.5861 0.704108 17.16 1.31274C18.0954 1.13249 18.9924 0.791075 19.811 0.303738C19.4992 1.26824 18.8464 2.08597 17.975 2.60374C18.8044 2.50917 19.6151 2.29109 20.38 1.95674C19.8081 2.78946 19.0999 3.51971 18.285 4.11674V4.11974Z" fill="#1D1D1F"/>
</svg>
